<svg version="1" xmlns="http://www.w3.org/2000/svg" width="426.667" height="426.667" viewBox="0 0 320.000000 320.000000"><path d="M164 77.7c0 1.2.5 2.5 1 2.8 2 1.2.9 2.5-1.5 1.9-1.9-.5-2.4-.3-2 .8.4 1-.8 1.7-3.9 2.6-4.2 1.1-10 .7-17.8-1.3-6.7-1.7-8.8 2.1-8.8 16 0 5.1-.3 11.3-.6 13.9-.7 4.7-.7 4.7-3.8 3.9-1.7-.4-6-.8-9.6-.8-5.4 0-7.8.6-13 3.2-5.8 2.9-6.6 3-7.4 1.6-3.3-6-10-8-15.5-4.7-5.2 3.1-10 12.4-10.1 19.7 0 4.5 2.4 9.7 4.5 9.7 1.6 0 1.9 4.4.6 9-.7 2.5-.8 2.5-1.5.3-1-3.2-6.1-7.1-10.8-8.4-5.6-1.5-11.4.8-16.8 6.7-8.1 8.8-11.5 20.1-10.8 35 .4 7.5 1.1 10.4 3.6 15.8 3.8 8 7.4 10.6 14.8 10.6 6.2 0 10.4-2.5 15.4-9.2l3.4-4.7 1.2 3.6c2.9 8.3 9.5 10.8 16.8 6.5 3.1-1.8 3.6-1.9 4.7-.6 5.7 6.9 19.8 5.5 27.6-2.7 7.5-7.9 11.3-22.9 7-27.6-1.4-1.6-1.6-3.1-1.1-8 .9-8.3-1.5-16.1-6.1-20.2-3.3-2.9-3.4-3.3-2.8-7.7l.6-4.7 7.6.6c6.3.5 21.8 4 43.5 9.8 3.6 1 3.7 1.1 1.9 2.4-1.7 1.2-2.5 1.1-6-.6-3.8-1.9-4.3-1.9-8.8-.4-4.1 1.4-4.9 1.5-6.3.2-4.6-3.9-10.4-2.2-15.1 4.4-6 8.2-7.2 19.1-2.6 22.9 1.2 1 1.3 2.9.8 9.9-1 15.4 4.1 26.1 12.6 26.1 2.5 0 4.4-.7 5.6-2 1.8-2 1.8-2 5 0 3.9 2.4 9.2 2.6 11.7.3 1.7-1.5 1.9-1.5 3.6 0 2.7 2.4 7.9 2.1 12.8-.8l4.3-2.5 3.7 2.5c5.4 3.7 12.7 3.5 18.1-.4 2.3-1.6 4.9-4 5.8-5.3 1.2-1.6 1.9-1.9 2.2-1 1 2.7 5.4 7 8.3 8.2 4.9 2 12.2.8 16.7-2.7 5.4-4.3 10.9-14.2 12.9-23.1 3-13.5.1-30-6.5-37.1-6.1-6.6-16.4-5.9-23.6 1.5l-4.2 4.2-1.7-2.8-1.7-2.9 3.9-2c6.1-3.1 13.5-9.4 17.5-14.9 4.7-6.4 4.7-7.3-.2-2.9-3.8 3.4-11.1 6.7-18.1 8.2l-3.5.7 2.9-3 2.9-3.1-4.4 2.2c-3.1 1.5-6.8 2.2-13.2 2.5l-9 .5.5-7.4c.3-4.1 1.1-7.5 1.7-7.7 1.4-.5 1.5-3.2.1-3.2-.6 0-.6-.9-.1-2.3.7-2.1.5-8.8-.5-13.5-.5-2.3-.7-2.3-6.8-1.7-3.5.4-7.7.4-9.3.1-2.6-.6-2.9-1.1-2.5-3.5.2-1.6-.1-3.2-.8-3.6-.9-.5-1-.2-.6 1.3.6 1.7.3 1.9-2.6 1.7-2-.1-3.4-.9-3.9-2.1-.6-1.6-.8-1.5-.8.6-.1 1.5.4 3.1 1.1 3.8.9.9.8 1.2-.4 1.2-2.4 0-3 2.8-.9 3.5 1.4.4 1.8 1.5 1.7 3.8-.1 2.1.4 3.2 1.3 3.2 1.9 0 4.1 6.5 4.8 14.2.5 5 .3 6.3-.8 6.3-.8 0-5.4-1.8-10.4-3.8-8.4-3.6-9-4.1-9.3-6.9-.2-1.7.4-4.8 1.4-6.9.9-2.2 2.1-6.1 2.8-8.9.9-4 1.6-5 3.6-5.5s2.5-1.3 2.6-4.1c.1-1.8.2-5.1.3-7.1.1-2.6.5-3.6 1.4-3.2 1.7.6 5.1-3.1 4.2-4.6-.4-.7-1.8-.9-3.2-.5-2.1.5-2.3.4-1.4-1.4 1.4-2.5 1.4-5.2.1-2.9-1.6 2.7-6.8 2-8.5-1.1-1.3-2.5-1.4-2.5-1.5-.4zm-30.1 37.6c.1 1.6-.3 2.6-.9 2.2-.5-.3-.9-3.9-.9-7.8l.2-7.2.7 5c.5 2.7.9 6.3.9 7.8zm19.5 4.3c.4 1.5.5 2.8.2 3.1-.4.4-8.6-1.7-8.6-2.3 0-2.1 1.7-3.4 4.5-3.4 2.7 0 3.4.5 3.9 2.6zm4.9 3.4c.3 1.1.1 2-.4 2s-.9-.9-.9-2 .2-2 .4-2 .6.9.9 2zm37.2 3c.4.6 1.6.8 2.7.4 2-.6 2-.4 1.3 5.2-.9 7.3-1 7.4-4.5 7.4-3 0-3 0-4.6-9.2-.5-3-.3-3.7 1.3-4.1 3-.8 3.2-.7 3.8.3zm-106 2c2.8 3.1 2.9 11 .6 33.1-2.3 21.8-2.6 30.5-1 31.4 1.7 1.1 4.9-2.6 4.9-5.5 0-9.3 7.7-22.7 14.7-25.6 8.5-3.6 13.3-.2 13.3 9.5 0 7.7-4.3 15.1-11.1 19.3-5.2 3.3-5.8 4.2-3.3 5.2 3 1.2 5.9.5 11.3-2.4 3-1.7 5.6-2.8 5.9-2.5.3.2-.8 2.9-2.2 6-6.1 12.4-21.8 15.1-26.5 4.5l-1.9-4.2-2.2 3.1c-2.7 3.9-7.5 6.4-10.6 5.7-4.4-1.1-4.5-5.2-.8-52.8.6-8.2.4-10.1-1-12.3-.9-1.4-2.3-2.5-3.2-2.5-1.1 0-1.4-.6-.9-2.3 1-3.2 4.4-8.5 5.8-9.1 2.8-1.1 6.5-.5 8.2 1.4zm98.3.7c1.3 2.6 2.2 8.2 1.4 8.6-.4.3-1.7.1-2.9-.4-2.4-.9-2.9-3.2-1.7-7.7.8-2.6 2-2.8 3.2-.5zM114 141.1c2.1 3.8-3.8 10.8-10.6 12.8-6 1.7-6-.2 0-7.8 6-7.4 8.7-8.7 10.6-5zm81.6 14.3c.1.1-.7 1.4-1.6 3l-1.8 2.8-1.6-3c-.9-1.7-1.6-3.3-1.6-3.6 0-.4 6.1.3 6.6.8zm-131.2 3c11.3 4.7 9.2 36.9-3 46.3-2.5 1.9-4.8 2.6-8 2.7-3.9.1-5-.3-7.4-3.1-3.9-4.4-5.3-10.2-4.8-20.3.3-6.3 1-9.7 2.8-13 3.4-6.7 6.7-10.6 10.3-12.4 4-1.9 5.9-2 10.1-.2zm149.7.2c3.3 1.7 6.2 7.1 7.5 13.8l.7 3.9 1.9-5.2c4-10.7 12.4-16 20.5-13 9.6 3.7 11.8 23.7 4.2 38-4.3 8.1-8.7 11.4-15.1 11.4-6.7 0-10.4-3.8-12-12.2l-1.1-6-2.9 5.8c-3.4 6.8-8.4 11.5-13.1 12.4-4.6.9-10.2-1.6-12.6-5.5l-1.9-3.1-2.1 2.9c-2.6 3.6-8.5 6.6-11.6 5.8-4-1-4.8-5.8-3.4-19.1.7-6.3.9-11.8.5-12.2-2.5-2.5-7.7 13.1-7.8 23.4 0 7.1-.1 7.3-2.5 7.3-7.1 0-8.8-4.5-7.1-18.7.9-8.1.9-10.6-.1-11.6-.9-.9-1.4-.9-2.2.3-2 3.2-4.1 12.7-4.8 21.4-.6 9-.6 9.1-3.1 8.8-6-.8-7.6-6.4-6.2-22.4.5-6.2.8-11.6.5-12.1-.2-.4-1.3-.7-2.4-.7-2.3 0-2.4-1.1-.4-5 1.8-3.5 6.1-7 8.6-7 2.1 0 3.9 2.8 3.9 5.9 0 2.8.7 2.6 3.9-.8 3.1-3.4 7.6-4.9 10-3.4.9.5 2.3 2.4 3.2 4.1l1.6 3.1 2.2-3c4.7-6.3 11.2-6.4 13.8-.2 1.3 3.2 1.3 5.2.2 15.5-.7 6.5-.9 12.1-.6 12.5.4.4 1.7-.3 2.9-1.5 1.7-1.7 2.4-3.9 2.9-9.9 1.1-11 5.7-19.9 11.9-23.1 5.2-2.6 8-2.8 12.1-.6z"/><path d="M108.6 173.4c-2.4 2.7-5.3 12.3-4 13.5 1.1 1.1 7.4-7.1 8-10.6.9-5-.8-6.2-4-2.9zM56.6 169.9c-4.9 5.4-7.6 22.2-4 25.2 2.3 1.9 4.4.2 7.3-5.6 3.9-7.6 3.3-21.5-.9-21.5-.4 0-1.5.8-2.4 1.9zM204.6 171.3c-4.1 6.2-5.8 17.3-3.6 23.2.8 2.2 1.3 2.4 2.9 1.5 2.4-1.2 6.1-10.8 6.8-17.6.9-8.1-2.8-12.3-6.1-7.1zM236.7 170.8c-4.4 4.8-6.7 21.6-3.5 24.8 4.3 4.3 11.2-15.7 8.4-24.4-.9-2.7-2.7-2.8-4.9-.4zM264.9 152.2c.5 3.8.6 3.9.9 1.3.2-1.7.8-3.6 1.4-4.3.8-.9.5-1.2-.9-1.2-1.6 0-1.8.6-1.4 4.2zM269.1 150.1c0 1.4.6 3.4 1.4 4.5.8 1 1.5 1.4 1.5.8 0-.5-.4-1.4-.9-2-.5-.5-1.1-2-1.4-3.4l-.4-2.5-.2 2.6zM272.1 150.7c0 1 .4 2.7.9 3.8.7 1.6.9 1.3.9-1.8.1-2-.3-3.7-.9-3.7-.5 0-1 .8-.9 1.7zM105 225.9c0 .5-.3 1.6-.6 2.5-.3.9-.2 1.6.4 1.6 1.3 0 2.3-3.8 1.1-4.6-.5-.3-.9-.1-.9.5zM78.7 227.7c-.4.3-.7 2.8-.7 5.4 0 3.3-.4 4.9-1.6 5.3-1.3.5-1.5-.2-1.4-4.2.2-6.4.1-7-1.1-4.9-1.3 2.2-1.5 16.9-.3 18.8.6 1 1 .1 1.4-3 .6-5.5 3-6.9 3-1.7 0 2 .3 3.6.8 3.6.4 0 .9-4.5 1-10 .4-9.8.2-10.7-1.1-9.3zM137.7 228.7c-1.1 2.1-3.8 15.4-3.5 17.4.3 1.6.9.3 2-4.1l1.6-6.5.1 6.1c0 3.3.4 6.4.8 6.8.4.4 1.7-3.3 3-8.1 2.6-10.2 2.6-10.3 1.4-10.3-.5 0-1.6 2.6-2.4 5.7l-1.6 5.8.2-6.2c.2-5.7-.5-8.5-1.6-6.6zM227.4 232.5c-.4 1.7-.1 3.2 1 4.4 1.2 1.4 1.3 2 .3 3.1-.9 1-.9 1.1.1.6 1.5-.9 1.6.6 0 2.2-.9.9-.9 1.2 0 1.2 2.2 0 3.2-4.3 1.5-6.8-1-1.7-1.1-2.7-.4-3.6.8-1 .7-1.7-.3-2.6-1.3-1-1.6-.7-2.2 1.5zM92 232.9c0 .6-.6.8-1.4.5-2-.8-3.5 7.7-2.6 14.6.5 4.2.8 4.7.9 2 0-2 .9-4.3 1.9-5.1.9-.9 2.3-2.5 3-3.5 1.1-1.6 1.2-1.1.8 3.8-.2 3.2 0 6 .5 6.3.5.4.9-.7.9-2.3 0-1.9 1.1-4.1 3-6.2 2.7-2.9 3-3 3-1.1 0 3.3 1.7 2.4 1.8-1 0-1.7.4-4.4.7-6 .4-1.8.3-2.9-.4-2.9-.6 0-1.1 1-1.1 2.2 0 1.3-.5 3-1.1 3.8-.8 1.2-.9 1-.5-1 .6-3.1-.3-4.6-3-4.7-1.6-.1-2.3.7-3.1 3.5l-1 3.7-.2-3.2c-.1-2.8-2.1-6-2.1-3.4zm7.5 4.8c-.8 4.4-2.5 6.8-2.5 3.6 0-2.6 1.7-7.3 2.6-7.3.3 0 .3 1.7-.1 3.7zm-7.2.5c-.7 3.9-2.3 6.1-2.3 3.2 0-3 1.1-6.4 2.1-6.4.5 0 .6 1.5.2 3.2zM106.2 235.5c-1.4 4.8-1.5 8.5-.3 8.5 1.1 0 2.5-7.9 1.9-10.6-.3-1.3-.8-.7-1.6 2.1zM109.6 232.7c-1.1 1.1-.7 11.3.5 11.3.6 0 .8-.8.5-1.8-.3-.9-.1-3.4.3-5.5.8-3.5.2-5.5-1.3-4zM114.2 233.3c-1.7 2.1-3 8.3-2.1 9.9.5 1 2.4 1.6 4.8 1.6 4.5.1 6.1-2.1 4.2-5.7-1.4-2.6-1.5-5.2-.1-3.1.8 1.2 1 1.1 1-.8 0-1.2-.6-2.2-1.4-2.2-1.5 0-2.8 4.8-1.5 5.6 1 .6.7 4-.4 5-.4.4-.7-.4-.7-1.7-.1-2.1-.2-2.2-1.1-.7-1.1 2-2.9 2.4-2.9.7 0-.6.7-1.7 1.5-2.5 1.6-1.7 2-6 .6-6.8-.5-.3-1.3 0-1.9.7zm.9 5c-1.3 1.3-1.5-.1-.4-3 .7-1.7.8-1.7 1.1.1.2 1-.1 2.3-.7 2.9zM223 236.4c0 3.5 1.3 5.5 2.5 3.6.3-.5.1-1-.6-1s-.9-1-.7-2.5c.3-1.4.1-2.8-.3-3.1-.5-.3-.9 1.1-.9 3zM82 236.6c-.6 1.4-1 4.3-1 6.5 0 3.7.8 4.8 2.4 3.1.4-.4 1.2-.7 1.8-.7.5 0 1.1-2.6 1.2-5.8.2-5 0-5.7-1.6-5.7-1.1 0-2.3 1.1-2.8 2.6zm2.4 3.6c-.7 4.6-1.1 5.4-1.9 4.6-.9-.8.6-8.8 1.6-8.8.5 0 .6 1.9.3 4.2z"/><path d="M123.8 236.4c-.3 1.4 0 3 .5 3.5.8.8.5 1.5-.9 2.5-1.5 1.2-1.6 1.7-.7 2.7 1.9 1.9 4.6-.8 3.8-3.9-.3-1.3-.1-3 .5-3.8.7-.7.9-1.8.5-2.4-1.1-1.8-3.3-1-3.7 1.4zm1.2 7c0 .3-.4.8-1 1.1-.5.3-1 .1-1-.4 0-.6.5-1.1 1-1.1.6 0 1 .2 1 .4zM152 235.7c-.8 1-1.6 2.9-1.7 4.3 0 1.4-.4 4.4-.7 6.7-.4 3.2-.2 4.3.8 4.3.8 0 1.7-.7 2-1.6.3-.8.2-1.2-.4-.9-1.3.8-1.2-.1.1-5 .6-2.2 1.5-4.3 2-4.6.6-.3.6-1.5.2-2.7-.8-2.1-.9-2.1-2.3-.5zM180.6 237.2c-.3 1.3-.9 5.8-1.3 10-.4 5.8-.3 7.8.6 7.8.7 0 1-.7.7-1.8-.4-1 0-5.2.8-9.3.8-4.1 1.1-7.8.6-8.2-.4-.5-1 .2-1.4 1.5zM184.5 238.7c-.3 2.1-.9 5.2-1.4 6.9-1.4 5.4.6 12.3 2.3 7.8.3-.9.2-1.2-.5-.9-.6.4-.8-.2-.5-1.7.3-1.2.7-4.3 1.1-6.8.3-2.5.8-5.5 1.2-6.8.3-1.2.1-2.2-.5-2.2s-1.4 1.7-1.7 3.7zM219.7 238c-.7 3.5.2 9 1.4 9 .5 0 .9-2.7.9-6 0-6.3-1.3-8.1-2.3-3zM212.5 241.2c-.7 4.6 0 8.8 1.4 8.8.7 0 .4-9.9-.3-12.5-.2-.6-.7 1.1-1.1 3.7zM215.8 241.7c-.3 2.8 0 5.3.6 6.1.9.9 1.2-.3 1.3-4.8.2-7.1-1.3-8.1-1.9-1.3zM144 239.5c-1.6 2-2.7 11.1-1.2 10.1.6-.4.9-1.3.6-2-.3-.8.2-3.1 1.1-5.2 1-2.2 1.9-3.4 2.2-2.7.2.6-.2 2.7-1 4.6-.8 1.9-1.1 4-.7 4.7 1 1.7 3.1.4 2.4-1.5-.4-.8-.1-2.9.5-4.7.9-2.4.8-3.3-.1-4-1.8-1.1-2.4-1-3.8.7zM205.5 241.9c-1.7 3.3-1 9.1 1.2 9.8 2.1.7 4.4-5.3 3.5-8.9-1.1-4.3-2.8-4.6-4.7-.9zm3.5 1.3c0 3.6-1.1 6.8-2.1 6.2-1-.6-1.2-4.5-.3-6.8.9-2.4 2.4-1.9 2.4.6zM156.2 244.5c-1.9 6.3-1.6 8.8.8 8 1.3-.4 2-.2 2 .6 0 2.1 1.3 0 1.5-2.4.1-1.2.5-3.7.9-5.5.5-1.9.4-3.2-.2-3.2-.5 0-1.5 2-2.1 4.5-.6 2.5-1.5 4.5-2 4.5-.6 0-.5-1.5 0-3.6.6-1.9.9-4.3.6-5.2-.2-1-.8-.1-1.5 2.3zM197.6 244.7c-1 6.4-.8 8.3 1.1 8.3 1.3 0 1.4.3.5 1.2-.7.7-1.2 1.7-1.2 2.2 0 .6.5.4 1-.4.8-1.2 1-1 1 .9 0 1.6-.4 2.1-1.4 1.8-1-.4-1.3-.1-.9.9.8 2.1 2.2 1.7 3.3-1 1.5-4.2 2.5-18 1.2-17.2-.7.4-1.2 1.9-1.3 3.4-.1 1.5-.5 3.8-.9 5.2-.7 1.9-.9 1.3-.8-2.7.2-6.3-.7-7.8-1.6-2.6zM164.2 243.7c-.6 1.2-1.2 4.1-1.1 6.5v4.3l1.5-4c.8-2.2 1.3-5.1 1.2-6.5l-.3-2.5-1.3 2.2zM167.4 243.4c-.9 2.3 0 6.1 1.4 5.8.7-.1 1.2.9 1.2 2.7 0 2.6.3 2.9 2.6 2.7 2.4-.3 2.6-.7 3-5.9.4-5 .3-5.7-1.4-5.7-1 0-2.5 1.1-3.2 2.5-1.8 3.4-3.1 3.1-2.3-.5.6-3.1-.3-4.2-1.3-1.6zm6.5 4.3c-.5 2.1-.9 4.1-.9 4.5 0 .5-.5.8-1 .8-.9 0-.8-2 .7-7.3.9-3.4 2.1-1.6 1.2 2zM187.9 244.7c-1.4 3.8-.8 9.9 1 9.5 1.2-.3 1.2-.1 0 1.4-.9 1.2-.9 1.5-.1 1s1.2-.1 1.2 1.3c0 2.6-1.7 3.6-2.3 1.4-.4-1.6-.5-1.6-.6-.1-.1 2.1 1.7 3.4 3.1 2 1.2-1.2 3.7-17.3 3-18.7-.3-.5-1.1 1.1-1.7 3.5-1.9 7.3-2.5 7.9-1.9 1.7.6-6.1 0-7.3-1.7-3zM128.1 244.6c0 1.1.3 1.4.6.6.3-.7.2-1.6-.1-1.9-.3-.4-.6.2-.5 1.3z"/></svg>