<?xml version="1.0"?>
<svg xmlns="http://www.w3.org/2000/svg" width="40" height="40" viewBox="0 0 128 128">
  <g>
  <path style="fill: white" d="M49.551,64.129H15.5a1.75,1.75,0,0,0-1.75,1.75V83a1.75,1.75,0,0,0,1.75,1.75H49.551A1.75,1.75,0,0,0,51.3,83V65.879A1.75,1.75,0,0,0,49.551,64.129ZM47.8,81.25H17.25V67.629H47.8Z"/>
  <path style="fill: white" d="M119.747,47.188a66.405,66.405,0,0,0-8.791-17.2A20,20,0,0,1,107.25,18.37V14.25h.375a1.75,1.75,0,0,0,1.75-1.75v-6a1.75,1.75,0,0,0-1.75-1.75h-24a1.75,1.75,0,0,0-1.75,1.75v6a1.75,1.75,0,0,0,1.75,1.75H84v4.12a19.965,19.965,0,0,1-3.707,11.617,66.632,66.632,0,0,0-8.788,17.2c-.125.364-.25.739-.362,1.094-.065.2-.12.409-.183.613l-3.6-7.939V33.5a1.75,1.75,0,0,0-1.75-1.75H13.558a1.749,1.749,0,0,0-1.75,1.75v7.457l-6.9,15.2,0,.014a1.812,1.812,0,0,0-.12.387c-.006.032,0,.065-.009.1a1.682,1.682,0,0,0-.023.225V121.5a1.75,1.75,0,0,0,1.75,1.75H72.67a1.739,1.739,0,0,0,.976-.3,7.694,7.694,0,0,0,2.1.3H115.5a7.759,7.759,0,0,0,7.75-7.75V68.48A66.459,66.459,0,0,0,119.747,47.188ZM14.686,43.083H62.892L57.423,55.129H9.217ZM60.3,58.63h8.436A66.582,66.582,0,0,0,68,68.48V115.5a7.7,7.7,0,0,0,1.277,4.25H60.3Zm11.2,9.85A62.8,62.8,0,0,1,74.43,49.5h42.377a62.935,62.935,0,0,1,2.943,18.98v7.9H71.5ZM85.375,8.25h20.5v2.5h-20.5ZM83.147,32.013A23.443,23.443,0,0,0,87.5,18.37V14.25h16.25v4.12A23.518,23.518,0,0,0,108.1,32.015,62.819,62.819,0,0,1,115.6,46H75.655A63.218,63.218,0,0,1,83.147,32.013ZM69.36,55.13H61.266l4.343-9.566,3.941,8.687C69.485,54.544,69.42,54.836,69.36,55.13Zm-5.5-19.88v4.33H15.308V35.25ZM8.25,58.63H56.8v61.12H8.25ZM115.5,119.75H75.75a4.255,4.255,0,0,1-4.25-4.25V79.88h48.25V115.5A4.255,4.255,0,0,1,115.5,119.75Z"/>
  <path style="fill: white" d="M115.5,89a1.75,1.75,0,0,0-1.75,1.75v18.083a1.75,1.75,0,0,0,3.5,0V90.75A1.75,1.75,0,0,0,115.5,89Z"/>
  </g>
</svg>
